<?xml version="1.0" encoding="utf-8"?>
<!-- Svg Vector Icons : http://www.onlinewebfonts.com/icon -->
<!DOCTYPE svg PUBLIC "-//W3C//DTD SVG 1.1//EN" "http://www.w3.org/Graphics/SVG/1.1/DTD/svg11.dtd">
<svg version="1.1" xmlns="http://www.w3.org/2000/svg" xmlns:xlink="http://www.w3.org/1999/xlink" x="0px" y="0px" viewBox="0 0 256 256" enable-background="new 0 0 256 256" xml:space="preserve">
<metadata> Svg Vector Icons : http://www.onlinewebfonts.com/icon </metadata>
<g><g><g><path fill="#000000" d="M55.4,10.4c-0.5,0.2-1.3,0.9-1.8,1.4c-0.8,0.9-0.9,1.7-0.9,7.6c0,6.3,0,6.7,1.1,7.7c1.4,1.5,3.4,1.9,5.4,1c2-0.8,3-2.9,3-6.5v-2.5h82.6h82.6v54.4v54.4h-9.7h-9.6l1.8-3.4c3.7-6.7,3.6-5.6,0.8-10.7l-2.5-4.6l-21.1-0.1l-21-0.1v9.5v9.5l-27,0.1l-27,0.1l-1.2,1.2c-2.4,2.4-1.2,6.9,1.9,7.5c0.8,0.1,29,0.3,62.7,0.4l61.3,0.1v2.3v2.3l-62.4,0.2l-62.4,0.2l-1.2,1.2c-1.8,1.8-1.8,4.5,0,6.3l1.2,1.2h65.7h65.7l1.2-1.3l1.3-1.2v-9v-9l-1.2-1.2c-1.1-1.1-1.8-1.3-4.5-1.4l-3.2-0.2l-0.1-57.3c-0.1-54.4-0.2-57.3-1-58.5c-0.5-0.6-1.5-1.4-2.3-1.7C231.8,9.9,56.8,9.9,55.4,10.4z"/><path fill="#000000" d="M61.8,34.1c-10.2,1.7-19.1,9.7-22.4,20c-1.2,3.7-1.3,10.5-0.5,14.3c2.4,10.1,11.4,19,21.4,21.2l2.9,0.6l-5.1,0c-12.9,0.1-20.2,4.5-23.4,13.9c-1,3-1,3.6-1.2,30.9l-0.1,28l-2.7,1.7c-7.1,4.4-11.1,11.6-11.1,20.1c0,6.3,1.8,11.2,6,15.9l1.8,2.1l-2,1.2c-5.4,3.4-9.5,8.1-12.4,14.3c-2.5,5.4-3.3,9.8-3.1,18.2c0.1,6.9,0.1,7,1.4,8.2l1.2,1.3H128h115.3l1.2-1.3c1.3-1.2,1.3-1.3,1.4-8.2c0.2-8.4-0.6-12.8-3.1-18.2c-2.9-6.2-7-10.8-12.4-14.3l-2-1.2l1.8-2.1c4.2-4.8,6-9.6,6-15.9c0-6.5-1.9-11.3-6.2-16c-13.7-14.8-38.3-6.5-40.6,13.7c-0.7,5.8,1.9,13.6,6,17.9l2.1,2.3l-3,1.9c-3,2-8.3,7.2-9.1,9.1c-0.6,1.4-0.9,1.4-1.8-0.2c-1.5-2.5-5.5-6.5-8.7-8.7l-3.2-2.2l1.6-1.6c8.8-9.1,8.5-24.3-0.6-32.9c-4.8-4.6-10.1-6.8-16.4-6.8c-6.6,0-12.3,2.4-16.8,7.1c-8.6,9-8.9,22.8-0.7,31.9l2.1,2.4l-3.2,2.2c-3.3,2.2-7.1,6.1-8.6,8.6c-0.4,0.7-0.9,1.3-1.1,1.3c-0.1,0-0.6-0.6-1.1-1.3c-1.5-2.5-5.4-6.4-8.6-8.6l-3.2-2.2l2.1-2.4c8.2-9.1,7.9-22.9-0.7-31.9c-2.9-3-6.5-5.2-10-6.3l-2-0.6v-21.5v-21.5l12-4.3c8.3-3,12.7-4.8,14.4-6c1.9-1.3,5.3-5.3,15.2-18.3c7.1-9.1,13.2-17.6,13.7-18.8c1.2-2.9,1.2-8.1,0-10.8c-3.3-7.3-12.7-10.1-19.5-5.8c-1.5,1-4.8,4.8-12.4,14.6c-5.7,7.3-10.5,13.6-10.8,13.9c-0.3,0.3-7.6,2-16.2,3.8l-15.7,3.3l-7.6,0c-6.1,0-7.1-0.1-5.3-0.5c1.3-0.2,4.2-1.3,6.5-2.4c14.2-6.8,20-24,13-38C86.2,38.2,74,32,61.8,34.1z M74.6,44.9c8,4,12.5,13.1,10.4,21.3c-3.7,14.5-20.9,19.4-31.5,9c-7.6-7.4-7.5-19.3,0.2-26.7c3.9-3.8,7.8-5.3,13.7-5.1C71,43.5,72,43.7,74.6,44.9z M150.4,63.3c1.2,1.2,1.5,2.9,0.6,4.5c-1.1,2.1-24.5,32.2-25.5,32.9c-0.6,0.4-6.8,2.8-13.9,5.4c-7,2.5-13.4,4.9-14.1,5.3c-2.6,1.4-2.6,1.7-2.6,27.1v23.3l-2.4,0.7c-5,1.4-11,6.5-13.4,11.2c-2,4.1-2.7,7-2.7,11.2c0,6.3,2.2,11.9,6.4,16.2l1.6,1.6l-3.2,2.2c-3.2,2.2-7.1,6.2-8.7,8.7c-0.9,1.5-1.2,1.6-1.8,0.1c-0.9-1.9-6.1-7.1-9.1-9.1l-3-1.9l2.1-2.3c4.1-4.3,6.6-12.1,6-17.9c-1.1-9.9-8.1-18-17.5-20.5c-1.5-0.4-3.4-0.7-4.2-0.7h-1.5v-26.2c0-29,0-29.1,2.9-32c2.9-2.9,3-2.9,22.9-3.2l18.2-0.2l16.8-3.6c10.4-2.2,17.3-3.9,18-4.4c0.6-0.5,6-7,11.9-14.6c5.9-7.6,11.1-14.1,11.5-14.4C146.7,61.7,149.1,62,150.4,63.3z M49,172.1c5.2,2.4,8.3,7.5,7.9,13.4c-0.2,4.1-1.6,7-4.6,9.7c-7,6.3-18.3,3.8-22.2-4.8c-1.4-3-1.3-8.2,0.1-11.3C33.5,171.8,41.6,168.8,49,172.1z M105.5,172c3,1.2,6.5,5.2,7.5,8.3c1.8,5.2,0,11.4-4.2,15.1c-2.9,2.5-5.9,3.5-10.1,3.2c-4.1-0.2-7.1-1.6-9.6-4.4c-3.5-4-4.5-9.3-2.7-14.2C89.4,172.2,97.8,168.7,105.5,172z M162.2,172c4.5,1.9,8.2,7.7,8.2,12.8c0,4.9-3.3,10.2-7.7,12.5c-3,1.5-7.9,1.8-11.2,0.7c-5-1.7-8.8-6.7-9.2-12.3c-0.3-4.1,0.7-7.1,3.5-10.1C150.2,170.8,156.2,169.4,162.2,172z M218.9,172c5,2.2,8,7.1,8,12.9c0,5.8-2.5,9.9-7.7,12.5c-5.1,2.5-11.3,1.7-15.5-2.1c-3-2.7-4.4-5.6-4.6-9.7c-0.4-7,4-12.8,10.8-14.5C212.3,170.4,216.3,170.8,218.9,172z M48.1,209c11.2,2.6,18.9,12.9,18.4,24.4l-0.1,3.3H42.9H19.4l0.1-4.6c0.3-9.9,4.8-17.1,13.2-21.2C37.9,208.4,42.8,207.8,48.1,209z M104.9,209c11.3,2.7,19,13.2,18.4,24.9l-0.1,2.8l-23.4,0.1l-23.4,0.1v-4.6c0-5.6,1.1-9.4,3.7-13.4C85.5,210.8,95.4,206.8,104.9,209z M161.6,209c5.8,1.4,11,5,14.3,10c2.7,4,3.7,7.8,3.7,13.4v4.6l-23.4-0.1l-23.4-0.1l-0.1-2.8C131.9,217.9,146.4,205.4,161.6,209z M217.3,208.9c1.5,0.3,4.2,1.2,6,2c8.4,4.1,12.9,11.3,13.2,21.2l0.1,4.6h-23.5h-23.5l-0.1-3.3c-0.5-11.3,7.2-21.7,18.3-24.3C211,208.3,213.7,208.2,217.3,208.9z"/></g></g></g>
</svg>