<?xml version="1.0" encoding="utf-8"?>
<!-- Svg Vector Icons : http://www.onlinewebfonts.com/icon -->
<!DOCTYPE svg PUBLIC "-//W3C//DTD SVG 1.1//EN" "http://www.w3.org/Graphics/SVG/1.1/DTD/svg11.dtd">
<svg version="1.1" xmlns="http://www.w3.org/2000/svg" xmlns:xlink="http://www.w3.org/1999/xlink" x="0px" y="0px" viewBox="0 0 256 256" enable-background="new 0 0 256 256" xml:space="preserve">
<metadata> Svg Vector Icons : http://www.onlinewebfonts.com/icon </metadata>
<g><g><path fill="#000000" d="M225.6,152.6v-18.7l0.1,0.3c4-6.8,5.9-13.9,0.2-14.1c-0.1,0-0.3,0-0.3,0V55.7l7.9,2.5c8.7,4,12.5,7.2,12.4,9.4c-0.5,2.4-3.3,4.4-7.3,6.2l-10.5,3.4c1.5,2.7,2.6,5.3,2.6,7.9l0.2,24.1c16.5,8.5,10.2,24.4-5,43.8L225.6,152.6L225.6,152.6z M225.6,55.7V120c-5.3,0.1-5.2,6.3,0,13.8v18.7c-14.8-16.5-21.9-35.1-4.9-43.4l-0.1-20.4c0.1-5-2.4-7.9-5.7-7.2l-17.5,4.7l-0.1,30.6l-2.6,2.2l1.8,9c25.1,12.3,17.3,46.9-7.6,55.6c-5.1,15.1-17.1,28.6-30.9,37v-14c10-7.7,18.9-18.3,20.4-30.3c0.2-2.8,2.8-3.4,6.7-3c16.3-8.8,23.2-26.1,6.2-35.6l-5.1,0.1l-1.5-15.6l-26.6,5.6v-11.5l29-6.7l0.2-19.2l-29.3,8.2V87l36.6-10.9l-36.6-8.4V56.7l57,12.8l9.4-2.4l-66.5-21V34.5L225.6,55.7L225.6,55.7z M157.9,162.2c5.5,0,9.9-4.5,9.9-9.9c0-5.4-4.4-9.9-9.9-9.9V162.2z M100.4,142.4c5.5,0,9.9,4.5,9.9,9.8c0,5.5-4.4,9.9-9.9,9.9V142.4z M157.9,34.5v11.7l-29.3-9.2l-28.3,8.8V34.3l22.2-7c4.5-1.5,9.2-1.2,14.2,0.7L157.9,34.5L157.9,34.5z M157.9,56.7v11.1L128.1,61c-5.6-1.2-3-11.9,4.4-10L157.9,56.7L157.9,56.7z M157.9,87v11.5l-28.1,7.8l-29.4-7.9V87.1L123,94c3.7,1.2,8,1.2,12.3-0.1L157.9,87L157.9,87z M157.9,116.3v11.5l-28.7,6.1l-28.8-6.2v-11.8l29.4,6.9L157.9,116.3L157.9,116.3z M157.9,142.4v19.7c-5.5,0-9.9-4.5-9.9-9.9C148,146.8,152.5,142.4,157.9,142.4L157.9,142.4z M157.9,206.6v14c-9.2,5.5-19.1,8.9-28.4,9c-9.4-0.4-19.7-3.9-29-9.7v-14c10.2,8.3,22.2,12.9,29.5,13.3C136.2,219.3,147.7,214.5,157.9,206.6L157.9,206.6z M100.4,162.2c-5.5,0-9.9-4.5-9.9-9.9c0-5.4,4.4-9.9,9.9-9.9V162.2z M100.4,34.3l-80,25.5C15.5,61.3,10,64.9,10,66.9s3.2,4.6,6.3,5.7l46,15.1V118l2.8,1.2l-1.8,9.1c-24.5,8.2-19.7,48.2,8.1,54.6c4.6,16.1,15.8,29,28.9,37.1v-14c-8.4-6.7-15.7-16-18.5-27.4c-0.1-3.6-1.9-5.8-6.2-5.3c-21.1-7.7-20.8-28.9-7.1-35.2l5.1-0.1l1.8-15.7l25,5.5v-11.8L73,109.4V91l27.4,7.5V87.1L32.5,66.8l67.9-21.2V34.3L100.4,34.3z"/></g></g>
</svg>