<?xml version="1.0" encoding="utf-8"?>
<!-- Svg Vector Icons : http://www.onlinewebfonts.com/icon -->
<!DOCTYPE svg PUBLIC "-//W3C//DTD SVG 1.1//EN" "http://www.w3.org/Graphics/SVG/1.1/DTD/svg11.dtd">
<svg version="1.1" xmlns="http://www.w3.org/2000/svg" xmlns:xlink="http://www.w3.org/1999/xlink" x="0px" y="0px" viewBox="0 0 256 256" enable-background="new 0 0 256 256" xml:space="preserve">
<metadata> Svg Vector Icons : http://www.onlinewebfonts.com/icon </metadata>
<g><g><path fill="#000000" d="M59.8,10c-5.1,0-10,1-14.6,3c-4.5,1.9-8.5,4.6-11.9,8s-6.1,7.5-8,11.9c-2,4.6-3,9.6-3,14.6v160.9c0,5.1,1,10,3,14.6c0.4,0.8,0.7,1.7,1.2,2.5c1.8,3.5,4.1,6.7,6.9,9.5c1.8,1.8,3.8,3.5,6,4.9c0.2,0.1,0.4,0.3,0.7,0.4c0.3,0.2,0.7,0.4,1,0.6c1.4,0.8,2.8,1.5,4.3,2.1c4.6,2,9.6,3,14.6,3h173.9V10H59.8L59.8,10z M78.5,23.9h37.1V108l-13.7-13.5c-2.7-2.7-7.1-2.7-9.8,0L78.5,108V23.9L78.5,23.9z M219.8,232.1h-160c-13.1,0-23.7-10.6-23.7-23.7v-0.1c0-13.1,10.6-23.7,23.7-23.7h160L219.8,232.1L219.8,232.1z M59.8,170.8c-5.1,0-10,1-14.6,3c-3.3,1.4-6.3,3.2-9,5.4V47.5c0-13.1,10.6-23.7,23.7-23.7h4.7v100.6c0,2.8,1.7,5.3,4.3,6.4c2.6,1.1,5.6,0.5,7.6-1.5L97,109.2l20.6,20.3c1.3,1.3,3.1,2,4.9,2c0.9,0,1.8-0.2,2.7-0.5c2.6-1.1,4.3-3.6,4.3-6.4V23.9h90.4v146.9H59.8L59.8,170.8z"/></g></g>
</svg>